<svg viewBox="0 0 512 512" fill="none" xmlns="http://www.w3.org/2000/svg">
  <!-- Background (white with subtle border) -->
  <rect width="512" height="512" fill="#ffffff" rx="100"/>
  <rect width="512" height="512" fill="none" stroke="#f0f0f0" stroke-width="4" rx="100"/>
  
  <!-- Main infinity-like twisted loop (perfectly centered) -->
  <path 
    d="M256,128 
       C332,128 372,168 372,256 
       C372,344 332,384 256,384 
       C180,384 140,344 140,256 
       C140,168 180,128 256,128 
       Z
       M256,180 
       C208,180 192,204 192,256 
       C192,308 208,332 256,332 
       C304,332 320,308 320,256 
       C320,204 304,180 256,180 
       Z" 
    fill="#000000"
    stroke="#000000"
    stroke-width="6"
  />
  
  <!-- Central W letter (perfectly sized and positioned) -->
  <text 
    x="256" 
    y="280" 
    text-anchor="middle" 
    dominant-baseline="middle" 
    font-family="system-ui, -apple-system, 'SF Pro Display', 'Helvetica Neue', sans-serif" 
    font-size="140" 
    font-weight="900" 
    fill="#000000"
    letter-spacing="-0.02em"
  >
    W
  </text>
  
  <!-- Subtle outer ring for professional look -->
  <circle 
    cx="256" 
    cy="256" 
    r="150" 
    stroke="#e8e8e8" 
    stroke-width="3" 
    fill="transparent" 
    opacity="0.4"
  />
</svg>